<svg xmlns="http://www.w3.org/2000/svg" xmlns:cc="http://web.resource.org/cc/" xmlns:svg="http://www.w3.org/2000/svg" id="svg2" width="1350" height="650" version="1.0"><defs id="defs4"><marker id="Arrow2Lend" orient="auto" refX="0" refY="0" style="overflow:visible"><path id="path3088" d="M 8.7185878,4.0337352 L -2.2072895,0.016013256 L 8.7185884,-4.0017078 C 6.97309,-1.6296469 6.9831476,1.6157441 8.7185878,4.0337352 z" transform="matrix(-1.1,0,0,-1.1,-1.1,0)" style="font-size:12px;fill-rule:evenodd;stroke-width:.625;stroke-linejoin:round"/></marker></defs><metadata id="metadata7"/><g id="layer1" transform="translate(281.5,-61)"><g id="g2782" transform="translate(-154.1875,38)"><path id="path1874" d="M 120 70 A 50 50 0 1 1 20,70 A 50 50 0 1 1 120 70 z" transform="translate(419.5,20.5)" style="fill:#000;fill-opacity:1;fill-rule:nonzero;stroke:#000;stroke-width:3;stroke-linecap:round;stroke-linejoin:round;stroke-miterlimit:4;stroke-dasharray:none;stroke-dashoffset:10;stroke-opacity:1"/><text id="text2762" x="488.797" y="107.973" xml:space="preserve" style="font-size:48px;font-style:normal;font-variant:normal;font-weight:400;font-stretch:normal;text-align:center;line-height:125%;writing-mode:lr-tb;text-anchor:middle;fill:#000;fill-opacity:1;stroke:none;stroke-width:1px;stroke-linecap:butt;stroke-linejoin:miter;stroke-opacity:1;font-family:Bitstream Vera Sans"><tspan style="font-size:48px;font-style:normal;font-variant:normal;font-weight:400;font-stretch:normal;text-align:center;line-height:125%;writing-mode:lr-tb;text-anchor:middle;fill:#fff;fill-opacity:1;font-family:Bitstream Vera Sans" id="tspan2764" x="488.797" y="107.973">13</tspan></text></g><g id="g2798" transform="translate(-256.75,57)"><path id="path2789" d="M 120 70 A 50 50 0 1 1 20,70 A 50 50 0 1 1 120 70 z" transform="translate(198.5,141.5)" style="fill:red;fill-opacity:1;fill-rule:nonzero;stroke:#000;stroke-width:3;stroke-linecap:round;stroke-linejoin:round;stroke-miterlimit:4;stroke-dasharray:none;stroke-dashoffset:10;stroke-opacity:1"/><text id="text2791" x="267.797" y="228.973" xml:space="preserve" style="font-size:48px;font-style:normal;font-variant:normal;font-weight:400;font-stretch:normal;text-align:center;line-height:125%;writing-mode:lr-tb;text-anchor:middle;fill:#000;fill-opacity:1;stroke:none;stroke-width:1px;stroke-linecap:butt;stroke-linejoin:miter;stroke-opacity:1;font-family:Bitstream Vera Sans"><tspan style="font-size:48px;font-style:normal;font-variant:normal;font-weight:400;font-stretch:normal;text-align:center;line-height:125%;writing-mode:lr-tb;text-anchor:middle;fill:#fff;fill-opacity:1;font-family:Bitstream Vera Sans" id="tspan2793" x="267.797" y="228.973">8</tspan></text></g><g id="g2803" transform="translate(390.375,57)"><path id="path2805" d="M 120 70 A 50 50 0 1 1 20,70 A 50 50 0 1 1 120 70 z" transform="translate(198.5,141.5)" style="fill:red;fill-opacity:1;fill-rule:nonzero;stroke:#000;stroke-width:3;stroke-linecap:round;stroke-linejoin:round;stroke-miterlimit:4;stroke-dasharray:none;stroke-dashoffset:10;stroke-opacity:1"/><text id="text2807" x="267.797" y="228.973" xml:space="preserve" style="font-size:48px;font-style:normal;font-variant:normal;font-weight:400;font-stretch:normal;text-align:center;line-height:125%;writing-mode:lr-tb;text-anchor:middle;fill:#000;fill-opacity:1;stroke:none;stroke-width:1px;stroke-linecap:butt;stroke-linejoin:miter;stroke-opacity:1;font-family:Bitstream Vera Sans"><tspan style="font-size:48px;font-style:normal;font-variant:normal;font-weight:400;font-stretch:normal;text-align:center;line-height:125%;writing-mode:lr-tb;text-anchor:middle;fill:#fff;fill-opacity:1;font-family:Bitstream Vera Sans" id="tspan2809" x="267.797" y="228.973">17</tspan></text></g><g id="g2811" transform="translate(-643,321)"><path id="path2813" d="M 120 70 A 50 50 0 1 1 20,70 A 50 50 0 1 1 120 70 z" transform="translate(419.5,20.5)" style="fill:#000;fill-opacity:1;fill-rule:nonzero;stroke:#000;stroke-width:3;stroke-linecap:round;stroke-linejoin:round;stroke-miterlimit:4;stroke-dasharray:none;stroke-dashoffset:10;stroke-opacity:1"/><text id="text2815" x="488.797" y="107.973" xml:space="preserve" style="font-size:48px;font-style:normal;font-variant:normal;font-weight:400;font-stretch:normal;text-align:center;line-height:125%;writing-mode:lr-tb;text-anchor:middle;fill:#000;fill-opacity:1;stroke:none;stroke-width:1px;stroke-linecap:butt;stroke-linejoin:miter;stroke-opacity:1;font-family:Bitstream Vera Sans"><tspan style="font-size:48px;font-style:normal;font-variant:normal;font-weight:400;font-stretch:normal;text-align:center;line-height:125%;writing-mode:lr-tb;text-anchor:middle;fill:#fff;fill-opacity:1;font-family:Bitstream Vera Sans" id="tspan2817" x="488.797" y="107.973">1</tspan></text></g><g id="g2835" transform="translate(330,321)"><path id="path2837" d="M 120 70 A 50 50 0 1 1 20,70 A 50 50 0 1 1 120 70 z" transform="translate(419.5,20.5)" style="fill:#000;fill-opacity:1;fill-rule:nonzero;stroke:#000;stroke-width:3;stroke-linecap:round;stroke-linejoin:round;stroke-miterlimit:4;stroke-dasharray:none;stroke-dashoffset:10;stroke-opacity:1"/><text id="text2839" x="488.797" y="107.973" xml:space="preserve" style="font-size:48px;font-style:normal;font-variant:normal;font-weight:400;font-stretch:normal;text-align:center;line-height:125%;writing-mode:lr-tb;text-anchor:middle;fill:#000;fill-opacity:1;stroke:none;stroke-width:1px;stroke-linecap:butt;stroke-linejoin:miter;stroke-opacity:1;font-family:Bitstream Vera Sans"><tspan style="font-size:48px;font-style:normal;font-variant:normal;font-weight:400;font-stretch:normal;text-align:center;line-height:125%;writing-mode:lr-tb;text-anchor:middle;fill:#fff;fill-opacity:1;font-family:Bitstream Vera Sans" id="tspan2841" x="488.797" y="107.973">25</tspan></text></g><g id="g2843" transform="translate(-308,340)"><path id="path2845" d="M 120 70 A 50 50 0 1 1 20,70 A 50 50 0 1 1 120 70 z" transform="translate(198.5,141.5)" style="fill:red;fill-opacity:1;fill-rule:nonzero;stroke:#000;stroke-width:3;stroke-linecap:round;stroke-linejoin:round;stroke-miterlimit:4;stroke-dasharray:none;stroke-dashoffset:10;stroke-opacity:1"/><text id="text2847" x="267.797" y="228.973" xml:space="preserve" style="font-size:48px;font-style:normal;font-variant:normal;font-weight:400;font-stretch:normal;text-align:center;line-height:125%;writing-mode:lr-tb;text-anchor:middle;fill:#000;fill-opacity:1;stroke:none;stroke-width:1px;stroke-linecap:butt;stroke-linejoin:miter;stroke-opacity:1;font-family:Bitstream Vera Sans"><tspan style="font-size:48px;font-style:normal;font-variant:normal;font-weight:400;font-stretch:normal;text-align:center;line-height:125%;writing-mode:lr-tb;text-anchor:middle;fill:#fff;fill-opacity:1;font-family:Bitstream Vera Sans" id="tspan2849" x="267.797" y="228.973">6</tspan></text></g><g id="g3298" transform="translate(12,-60)"><path id="path2853" d="M 120 70 A 50 50 0 1 1 20,70 A 50 50 0 1 1 120 70 z" transform="translate(613.5,541.5)" style="fill:red;fill-opacity:1;fill-rule:nonzero;stroke:#000;stroke-width:3;stroke-linecap:round;stroke-linejoin:round;stroke-miterlimit:4;stroke-dasharray:none;stroke-dashoffset:10;stroke-opacity:1"/><text id="text2855" x="682.797" y="628.973" xml:space="preserve" style="font-size:48px;font-style:normal;font-variant:normal;font-weight:400;font-stretch:normal;text-align:center;line-height:125%;writing-mode:lr-tb;text-anchor:middle;fill:#000;fill-opacity:1;stroke:none;stroke-width:1px;stroke-linecap:butt;stroke-linejoin:miter;stroke-opacity:1;font-family:Bitstream Vera Sans"><tspan style="font-size:48px;font-style:normal;font-variant:normal;font-weight:400;font-stretch:normal;text-align:center;line-height:125%;writing-mode:lr-tb;text-anchor:middle;fill:#fff;fill-opacity:1;font-family:Bitstream Vera Sans" id="tspan2857" x="682.797" y="628.973">22</tspan></text></g><g id="g3283" transform="translate(12,-60)"><rect id="rect2880" width="82" height="42" x="716.5" y="721.5" style="fill:#000;fill-opacity:1;fill-rule:nonzero;stroke:#000;stroke-width:3;stroke-linecap:round;stroke-linejoin:round;stroke-miterlimit:4;stroke-dasharray:none;stroke-dashoffset:10;stroke-opacity:1"/><text id="text2882" x="756.194" y="752.706" xml:space="preserve" style="font-size:12px;font-style:normal;font-weight:400;text-align:center;line-height:125%;text-anchor:middle;fill:#000;fill-opacity:1;stroke:none;stroke-width:1px;stroke-linecap:butt;stroke-linejoin:miter;stroke-opacity:1;font-family:Bitstream Vera Sans"><tspan style="font-size:28px;font-style:normal;font-variant:normal;font-weight:400;font-stretch:normal;text-align:center;line-height:125%;writing-mode:lr-tb;text-anchor:middle;fill:#fff;fill-opacity:1;font-family:Bitstream Vera Sans" id="tspan2884" x="756.194" y="752.706">NIL</tspan></text></g><g id="g3278" transform="translate(12,-60)"><rect id="rect2896" width="82" height="42" x="571.5" y="721.5" style="fill:#000;fill-opacity:1;fill-rule:nonzero;stroke:#000;stroke-width:3;stroke-linecap:round;stroke-linejoin:round;stroke-miterlimit:4;stroke-dasharray:none;stroke-dashoffset:10;stroke-opacity:1"/><text id="text2898" x="611.194" y="752.706" xml:space="preserve" style="font-size:12px;font-style:normal;font-weight:400;text-align:center;line-height:125%;text-anchor:middle;fill:#000;fill-opacity:1;stroke:none;stroke-width:1px;stroke-linecap:butt;stroke-linejoin:miter;stroke-opacity:1;font-family:Bitstream Vera Sans"><tspan style="font-size:28px;font-style:normal;font-variant:normal;font-weight:400;font-stretch:normal;text-align:center;line-height:125%;writing-mode:lr-tb;text-anchor:middle;fill:#fff;fill-opacity:1;font-family:Bitstream Vera Sans" id="tspan2900" x="611.194" y="752.706">NIL</tspan></text></g><g id="g3694"><path style="fill:#000;fill-opacity:1;fill-rule:evenodd;stroke:none;stroke-width:3.00000143;stroke-linecap:butt;stroke-linejoin:miter;stroke-miterlimit:4;stroke-dasharray:none;stroke-opacity:1" id="path2934" d="M 723.1875,594.09375 L 720.8125,595.90625 L 768.8125,657.90625 L 771.15625,656.0625 L 723.1875,594.09375 z"/><path style="font-size:12px;fill-rule:evenodd;stroke-width:.625;stroke-linejoin:round" id="path3700" d="M 760.87842,623.47483 L 772.46642,660.1013 L 739.91066,639.7076 C 749.6265,639.47041 758.07474,632.888 760.87842,623.47483 z"/></g><g id="g3702"><path style="fill:#000;fill-opacity:1;fill-rule:evenodd;stroke:none;stroke-width:3.00000143;stroke-linecap:butt;stroke-linejoin:miter;stroke-miterlimit:4;stroke-dasharray:none;stroke-opacity:1" id="path3116" d="M 668.8125,594.09375 L 620.8125,656.0625 L 623.1875,657.90625 L 671.15625,595.90625 L 668.8125,594.09375 z"/><path style="font-size:12px;fill-rule:evenodd;stroke-width:.625;stroke-linejoin:round" id="path3708" d="M 652.15864,639.77173 L 619.60288,660.16543 L 631.19088,623.53896 C 633.8544,632.88559 642.34327,639.41551 652.15864,639.77173 z"/></g><g id="g3303" transform="translate(12,-60)"><path id="path2861" d="M 120 70 A 50 50 0 1 1 20,70 A 50 50 0 1 1 120 70 z" transform="translate(859,541.5)" style="fill:red;fill-opacity:1;fill-rule:nonzero;stroke:#000;stroke-width:3;stroke-linecap:round;stroke-linejoin:round;stroke-miterlimit:4;stroke-dasharray:none;stroke-dashoffset:10;stroke-opacity:1"/><text id="text2863" x="928.297" y="628.973" xml:space="preserve" style="font-size:48px;font-style:normal;font-variant:normal;font-weight:400;font-stretch:normal;text-align:center;line-height:125%;writing-mode:lr-tb;text-anchor:middle;fill:#000;fill-opacity:1;stroke:none;stroke-width:1px;stroke-linecap:butt;stroke-linejoin:miter;stroke-opacity:1;font-family:Bitstream Vera Sans"><tspan style="font-size:48px;font-style:normal;font-variant:normal;font-weight:400;font-stretch:normal;text-align:center;line-height:125%;writing-mode:lr-tb;text-anchor:middle;fill:#fff;fill-opacity:1;font-family:Bitstream Vera Sans" id="tspan2865" x="928.297" y="628.973">27</tspan></text></g><g id="g3293" transform="translate(12,-60)"><rect id="rect3120" width="82" height="42" x="961.5" y="721.5" style="fill:#000;fill-opacity:1;fill-rule:nonzero;stroke:#000;stroke-width:3;stroke-linecap:round;stroke-linejoin:round;stroke-miterlimit:4;stroke-dasharray:none;stroke-dashoffset:10;stroke-opacity:1"/><text id="text3122" x="1001.194" y="752.706" xml:space="preserve" style="font-size:12px;font-style:normal;font-weight:400;text-align:center;line-height:125%;text-anchor:middle;fill:#000;fill-opacity:1;stroke:none;stroke-width:1px;stroke-linecap:butt;stroke-linejoin:miter;stroke-opacity:1;font-family:Bitstream Vera Sans"><tspan style="font-size:28px;font-style:normal;font-variant:normal;font-weight:400;font-stretch:normal;text-align:center;line-height:125%;writing-mode:lr-tb;text-anchor:middle;fill:#fff;fill-opacity:1;font-family:Bitstream Vera Sans" id="tspan3124" x="1001.194" y="752.706">NIL</tspan></text></g><g id="g3288" transform="translate(12,-60)"><rect id="rect3128" width="82" height="42" x="816.5" y="721.5" style="fill:#000;fill-opacity:1;fill-rule:nonzero;stroke:#000;stroke-width:3;stroke-linecap:round;stroke-linejoin:round;stroke-miterlimit:4;stroke-dasharray:none;stroke-dashoffset:10;stroke-opacity:1"/><text id="text3130" x="856.194" y="752.706" xml:space="preserve" style="font-size:12px;font-style:normal;font-weight:400;text-align:center;line-height:125%;text-anchor:middle;fill:#000;fill-opacity:1;stroke:none;stroke-width:1px;stroke-linecap:butt;stroke-linejoin:miter;stroke-opacity:1;font-family:Bitstream Vera Sans"><tspan style="font-size:28px;font-style:normal;font-variant:normal;font-weight:400;font-stretch:normal;text-align:center;line-height:125%;writing-mode:lr-tb;text-anchor:middle;fill:#fff;fill-opacity:1;font-family:Bitstream Vera Sans" id="tspan3132" x="856.194" y="752.706">NIL</tspan></text></g><g id="g3668"><path style="fill:#000;fill-opacity:1;fill-rule:evenodd;stroke:none;stroke-width:3.00000143;stroke-linecap:butt;stroke-linejoin:miter;stroke-miterlimit:4;stroke-dasharray:none;stroke-opacity:1" id="path3134" d="M 968.1875,594.09375 L 965.8125,595.90625 L 1013.8125,657.90625 L 1016.1562,656.0625 L 968.1875,594.09375 z"/><path style="font-size:12px;fill-rule:evenodd;stroke-width:.625;stroke-linejoin:round" id="path3674" d="M 1005.8784,623.47483 L 1017.4664,660.1013 L 984.91064,639.70759 C 994.62648,639.4704 1003.0747,632.888 1005.8784,623.47483 z"/></g><g id="g3676"><path style="fill:#000;fill-opacity:1;fill-rule:evenodd;stroke:none;stroke-width:3.00000143;stroke-linecap:butt;stroke-linejoin:miter;stroke-miterlimit:4;stroke-dasharray:none;stroke-opacity:1" id="path3136" d="M 913.8125,594.09375 L 865.8125,656.0625 L 868.1875,657.90625 L 916.15625,595.90625 L 913.8125,594.09375 z"/><path style="font-size:12px;fill-rule:evenodd;stroke-width:.625;stroke-linejoin:round" id="path3682" d="M 897.15864,639.77173 L 864.60288,660.16543 L 876.19088,623.53896 C 878.8544,632.88559 887.34327,639.41551 897.15864,639.77173 z"/></g><g id="g3660"><path style="fill:#000;fill-opacity:1;fill-rule:evenodd;stroke:none;stroke-width:3.00000262;stroke-linecap:butt;stroke-linejoin:miter;stroke-miterlimit:4;stroke-dasharray:none;stroke-opacity:1" id="path3227" d="M 855.03125,448.125 L 852.75,450.0625 L 903.9375,509.96875 L 906.21875,508 L 855.03125,448.125 z"/><path style="font-size:12px;fill-rule:evenodd;stroke-width:.625;stroke-linejoin:round" id="path3666" d="M 894.35649,475.95346 L 907.69955,511.97767 L 874.19701,493.17977 C 883.89007,492.4737 892.01061,485.49103 894.35649,475.95346 z"/></g><g id="g2827" transform="translate(8.75,321)"><path id="path2829" d="M 120 70 A 50 50 0 1 1 20,70 A 50 50 0 1 1 120 70 z" transform="translate(419.5,20.5)" style="fill:#000;fill-opacity:1;fill-rule:nonzero;stroke:#000;stroke-width:3;stroke-linecap:round;stroke-linejoin:round;stroke-miterlimit:4;stroke-dasharray:none;stroke-dashoffset:10;stroke-opacity:1"/><text id="text2831" x="488.797" y="107.973" xml:space="preserve" style="font-size:48px;font-style:normal;font-variant:normal;font-weight:400;font-stretch:normal;text-align:center;line-height:125%;writing-mode:lr-tb;text-anchor:middle;fill:#000;fill-opacity:1;stroke:none;stroke-width:1px;stroke-linecap:butt;stroke-linejoin:miter;stroke-opacity:1;font-family:Bitstream Vera Sans"><tspan style="font-size:48px;font-style:normal;font-variant:normal;font-weight:400;font-stretch:normal;text-align:center;line-height:125%;writing-mode:lr-tb;text-anchor:middle;fill:#fff;fill-opacity:1;font-family:Bitstream Vera Sans" id="tspan2833" x="488.797" y="107.973">15</tspan></text></g><g id="g3324" transform="translate(-186.75,-201)"><rect id="rect3326" width="82" height="42" x="716.5" y="721.5" style="fill:#000;fill-opacity:1;fill-rule:nonzero;stroke:#000;stroke-width:3;stroke-linecap:round;stroke-linejoin:round;stroke-miterlimit:4;stroke-dasharray:none;stroke-dashoffset:10;stroke-opacity:1"/><text id="text3328" x="756.194" y="752.706" xml:space="preserve" style="font-size:12px;font-style:normal;font-weight:400;text-align:center;line-height:125%;text-anchor:middle;fill:#000;fill-opacity:1;stroke:none;stroke-width:1px;stroke-linecap:butt;stroke-linejoin:miter;stroke-opacity:1;font-family:Bitstream Vera Sans"><tspan style="font-size:28px;font-style:normal;font-variant:normal;font-weight:400;font-stretch:normal;text-align:center;line-height:125%;writing-mode:lr-tb;text-anchor:middle;fill:#fff;fill-opacity:1;font-family:Bitstream Vera Sans" id="tspan3330" x="756.194" y="752.706">NIL</tspan></text></g><g id="g3332" transform="translate(-186.75,-201)"><rect id="rect3334" width="82" height="42" x="571.5" y="721.5" style="fill:#000;fill-opacity:1;fill-rule:nonzero;stroke:#000;stroke-width:3;stroke-linecap:round;stroke-linejoin:round;stroke-miterlimit:4;stroke-dasharray:none;stroke-dashoffset:10;stroke-opacity:1"/><text id="text3336" x="611.194" y="752.706" xml:space="preserve" style="font-size:12px;font-style:normal;font-weight:400;text-align:center;line-height:125%;text-anchor:middle;fill:#000;fill-opacity:1;stroke:none;stroke-width:1px;stroke-linecap:butt;stroke-linejoin:miter;stroke-opacity:1;font-family:Bitstream Vera Sans"><tspan style="font-size:28px;font-style:normal;font-variant:normal;font-weight:400;font-stretch:normal;text-align:center;line-height:125%;writing-mode:lr-tb;text-anchor:middle;fill:#fff;fill-opacity:1;font-family:Bitstream Vera Sans" id="tspan3338" x="611.194" y="752.706">NIL</tspan></text></g><g id="g3644"><path style="fill:#000;fill-opacity:1;fill-rule:evenodd;stroke:none;stroke-width:3.00000143;stroke-linecap:butt;stroke-linejoin:miter;stroke-miterlimit:4;stroke-dasharray:none;stroke-opacity:1" id="path3340" d="M 524.4375,453.09375 L 522.0625,454.90625 L 570.0625,516.90625 L 572.40625,515.0625 L 524.4375,453.09375 z"/><path style="font-size:12px;fill-rule:evenodd;stroke-width:.625;stroke-linejoin:round" id="path3650" d="M 562.12842,482.47483 L 573.71642,519.1013 L 541.16066,498.7076 C 550.8765,498.47041 559.32474,491.888 562.12842,482.47483 z"/></g><g id="g3636"><path style="fill:#000;fill-opacity:1;fill-rule:evenodd;stroke:none;stroke-width:3.00000143;stroke-linecap:butt;stroke-linejoin:miter;stroke-miterlimit:4;stroke-dasharray:none;stroke-opacity:1" id="path3342" d="M 470.0625,453.09375 L 422.0625,515.0625 L 424.4375,516.90625 L 472.40625,454.90625 L 470.0625,453.09375 z"/><path style="font-size:12px;fill-rule:evenodd;stroke-width:.625;stroke-linejoin:round" id="path3642" d="M 453.40864,498.77173 L 420.85288,519.16543 L 432.44088,482.53896 C 435.1044,491.88559 443.59327,498.41551 453.40864,498.77173 z"/></g><g id="g3404" transform="translate(-312.5,321)"><path id="path3406" d="M 120 70 A 50 50 0 1 1 20,70 A 50 50 0 1 1 120 70 z" transform="translate(419.5,20.5)" style="fill:#000;fill-opacity:1;fill-rule:nonzero;stroke:#000;stroke-width:3;stroke-linecap:round;stroke-linejoin:round;stroke-miterlimit:4;stroke-dasharray:none;stroke-dashoffset:10;stroke-opacity:1"/><text id="text3408" x="488.797" y="107.973" xml:space="preserve" style="font-size:48px;font-style:normal;font-variant:normal;font-weight:400;font-stretch:normal;text-align:center;line-height:125%;writing-mode:lr-tb;text-anchor:middle;fill:#000;fill-opacity:1;stroke:none;stroke-width:1px;stroke-linecap:butt;stroke-linejoin:miter;stroke-opacity:1;font-family:Bitstream Vera Sans"><tspan style="font-size:48px;font-style:normal;font-variant:normal;font-weight:400;font-stretch:normal;text-align:center;line-height:125%;writing-mode:lr-tb;text-anchor:middle;fill:#fff;fill-opacity:1;font-family:Bitstream Vera Sans" id="tspan3410" x="488.797" y="107.973">11</tspan></text></g><g id="g3412" transform="translate(-508,-201)"><rect id="rect3414" width="82" height="42" x="716.5" y="721.5" style="fill:#000;fill-opacity:1;fill-rule:nonzero;stroke:#000;stroke-width:3;stroke-linecap:round;stroke-linejoin:round;stroke-miterlimit:4;stroke-dasharray:none;stroke-dashoffset:10;stroke-opacity:1"/><text id="text3416" x="756.194" y="752.706" xml:space="preserve" style="font-size:12px;font-style:normal;font-weight:400;text-align:center;line-height:125%;text-anchor:middle;fill:#000;fill-opacity:1;stroke:none;stroke-width:1px;stroke-linecap:butt;stroke-linejoin:miter;stroke-opacity:1;font-family:Bitstream Vera Sans"><tspan style="font-size:28px;font-style:normal;font-variant:normal;font-weight:400;font-stretch:normal;text-align:center;line-height:125%;writing-mode:lr-tb;text-anchor:middle;fill:#fff;fill-opacity:1;font-family:Bitstream Vera Sans" id="tspan3418" x="756.194" y="752.706">NIL</tspan></text></g><g id="g3420" transform="translate(-508,-201)"><rect id="rect3422" width="82" height="42" x="571.5" y="721.5" style="fill:#000;fill-opacity:1;fill-rule:nonzero;stroke:#000;stroke-width:3;stroke-linecap:round;stroke-linejoin:round;stroke-miterlimit:4;stroke-dasharray:none;stroke-dashoffset:10;stroke-opacity:1"/><text id="text3424" x="611.194" y="752.706" xml:space="preserve" style="font-size:12px;font-style:normal;font-weight:400;text-align:center;line-height:125%;text-anchor:middle;fill:#000;fill-opacity:1;stroke:none;stroke-width:1px;stroke-linecap:butt;stroke-linejoin:miter;stroke-opacity:1;font-family:Bitstream Vera Sans"><tspan style="font-size:28px;font-style:normal;font-variant:normal;font-weight:400;font-stretch:normal;text-align:center;line-height:125%;writing-mode:lr-tb;text-anchor:middle;fill:#fff;fill-opacity:1;font-family:Bitstream Vera Sans" id="tspan3426" x="611.194" y="752.706">NIL</tspan></text></g><g id="g3460" transform="translate(-839.5,-207)"><rect id="rect3462" width="82" height="42" x="571.5" y="721.5" style="fill:#000;fill-opacity:1;fill-rule:nonzero;stroke:#000;stroke-width:3;stroke-linecap:round;stroke-linejoin:round;stroke-miterlimit:4;stroke-dasharray:none;stroke-dashoffset:10;stroke-opacity:1"/><text id="text3464" x="611.194" y="752.706" xml:space="preserve" style="font-size:12px;font-style:normal;font-weight:400;text-align:center;line-height:125%;text-anchor:middle;fill:#000;fill-opacity:1;stroke:none;stroke-width:1px;stroke-linecap:butt;stroke-linejoin:miter;stroke-opacity:1;font-family:Bitstream Vera Sans"><tspan style="font-size:28px;font-style:normal;font-variant:normal;font-weight:400;font-stretch:normal;text-align:center;line-height:125%;writing-mode:lr-tb;text-anchor:middle;fill:#fff;fill-opacity:1;font-family:Bitstream Vera Sans" id="tspan3466" x="611.194" y="752.706">NIL</tspan></text></g><g id="g3588"><path style="fill:#000;fill-opacity:1;fill-rule:evenodd;stroke:none;stroke-width:3.00000143;stroke-linecap:butt;stroke-linejoin:miter;stroke-miterlimit:4;stroke-dasharray:none;stroke-opacity:1" id="path3468" d="M -182.6875,447.09375 L -230.6875,509.0625 L -228.3125,510.90625 L -180.34375,448.90625 L -182.6875,447.09375 z"/><path style="font-size:12px;fill-rule:evenodd;stroke-width:.625;stroke-linejoin:round" id="path3594" d="M -199.34134,492.77173 L -231.8971,513.16543 L -220.3091,476.53896 C -217.64558,485.88559 -209.15671,492.41551 -199.34134,492.77173 z"/></g><g id="g3580"><path style="fill:#000;fill-opacity:1;fill-rule:evenodd;stroke:none;stroke-width:3.00000143;stroke-linecap:butt;stroke-linejoin:miter;stroke-miterlimit:4;stroke-dasharray:none;stroke-opacity:1" id="path3484" d="M -121.28125,447.09375 L -123.65625,448.90625 L -75.65625,510.90625 L -73.28125,509.0625 L -121.28125,447.09375 z"/><path style="font-size:12px;fill-rule:evenodd;stroke-width:.625;stroke-linejoin:round" id="path3586" d="M -83.587996,476.47426 L -72.000003,513.10073 L -104.55576,492.70703 C -94.839917,492.46984 -86.391681,485.88743 -83.587996,476.47426 z"/></g><g id="g3486" transform="translate(-724.5,-61)"><rect id="rect3488" width="82" height="42" x="716.5" y="721.5" style="fill:#000;fill-opacity:1;fill-rule:nonzero;stroke:#000;stroke-width:3;stroke-linecap:round;stroke-linejoin:round;stroke-miterlimit:4;stroke-dasharray:none;stroke-dashoffset:10;stroke-opacity:1"/><text id="text3490" x="756.194" y="752.706" xml:space="preserve" style="font-size:12px;font-style:normal;font-weight:400;text-align:center;line-height:125%;text-anchor:middle;fill:#000;fill-opacity:1;stroke:none;stroke-width:1px;stroke-linecap:butt;stroke-linejoin:miter;stroke-opacity:1;font-family:Bitstream Vera Sans"><tspan style="font-size:28px;font-style:normal;font-variant:normal;font-weight:400;font-stretch:normal;text-align:center;line-height:125%;writing-mode:lr-tb;text-anchor:middle;fill:#fff;fill-opacity:1;font-family:Bitstream Vera Sans" id="tspan3492" x="756.194" y="752.706">NIL</tspan></text></g><g id="g3494" transform="translate(-724.5,-61)"><rect id="rect3496" width="82" height="42" x="571.5" y="721.5" style="fill:#000;fill-opacity:1;fill-rule:nonzero;stroke:#000;stroke-width:3;stroke-linecap:round;stroke-linejoin:round;stroke-miterlimit:4;stroke-dasharray:none;stroke-dashoffset:10;stroke-opacity:1"/><text id="text3498" x="611.194" y="752.706" xml:space="preserve" style="font-size:12px;font-style:normal;font-weight:400;text-align:center;line-height:125%;text-anchor:middle;fill:#000;fill-opacity:1;stroke:none;stroke-width:1px;stroke-linecap:butt;stroke-linejoin:miter;stroke-opacity:1;font-family:Bitstream Vera Sans"><tspan style="font-size:28px;font-style:normal;font-variant:normal;font-weight:400;font-stretch:normal;text-align:center;line-height:125%;writing-mode:lr-tb;text-anchor:middle;fill:#fff;fill-opacity:1;font-family:Bitstream Vera Sans" id="tspan3500" x="611.194" y="752.706">NIL</tspan></text></g><g id="g3564"><path style="fill:#000;fill-opacity:1;fill-rule:evenodd;stroke:none;stroke-width:3.00000143;stroke-linecap:butt;stroke-linejoin:miter;stroke-miterlimit:4;stroke-dasharray:none;stroke-opacity:1" id="path3502" d="M -13.3125,593.09375 L -15.6875,594.90625 L 32.3125,656.90625 L 34.65625,655.0625 L -13.3125,593.09375 z"/><path style="font-size:12px;fill-rule:evenodd;stroke-width:.625;stroke-linejoin:round" id="path3570" d="M 24.378424,622.47483 L 35.966417,659.1013 L 3.4106616,638.7076 C 13.126503,638.47041 21.574739,631.888 24.378424,622.47483 z"/></g><g id="g3572"><path style="fill:#000;fill-opacity:1;fill-rule:evenodd;stroke:none;stroke-width:3.00000143;stroke-linecap:butt;stroke-linejoin:miter;stroke-miterlimit:4;stroke-dasharray:none;stroke-opacity:1" id="path3504" d="M -67.6875,593.09375 L -115.6875,655.0625 L -113.3125,656.90625 L -65.34375,594.90625 L -67.6875,593.09375 z"/><path style="font-size:12px;fill-rule:evenodd;stroke-width:.625;stroke-linejoin:round" id="path3578" d="M -84.34136,638.77173 L -116.89712,659.16543 L -105.30912,622.53896 C -102.6456,631.88559 -94.156733,638.41551 -84.34136,638.77173 z"/></g><g id="g3596"><path style="fill:#000;fill-opacity:1;fill-rule:evenodd;stroke:none;stroke-width:3.00000048;stroke-linecap:butt;stroke-linejoin:miter;stroke-miterlimit:4;stroke-dasharray:none;stroke-opacity:1" id="path3536" d="M -34.03125,293.90625 L -116.0625,369.90625 L -114.03125,372.125 L -31.96875,296.09375 L -34.03125,293.90625 z"/><path style="font-size:12px;fill-rule:evenodd;stroke-width:.625;stroke-linejoin:round" id="path3602" d="M -82.463845,358.98387 L -117.92198,373.76562 L -100.48735,339.53387 C -99.39184,349.19066 -92.08808,357.02366 -82.463845,358.98387 z"/></g><g id="g3604"><path style="fill:#000;fill-opacity:1;fill-rule:evenodd;stroke:none;stroke-width:3.00000048;stroke-linecap:butt;stroke-linejoin:miter;stroke-miterlimit:4;stroke-dasharray:none;stroke-opacity:1" id="path3538" d="M 54.96875,293.90625 L 52.9375,296.09375 L 134.96875,372.125 L 137.03125,369.90625 L 54.96875,293.90625 z"/><path style="font-size:12px;fill-rule:evenodd;stroke-width:.625;stroke-linejoin:round" id="path3610" d="M 121.52357,339.45635 L 138.95819,373.6881 L 103.50006,358.90635 C 113.04562,357.07987 120.30069,349.20175 121.52357,339.45635 z"/></g><g id="g3628"><path style="fill:#000;fill-opacity:1;fill-rule:evenodd;stroke:none;stroke-width:3.00000048;stroke-linecap:butt;stroke-linejoin:miter;stroke-miterlimit:4;stroke-dasharray:none;stroke-opacity:1" id="path3540" d="M 615.03125,293.90625 L 532.96875,369.90625 L 535.03125,372.125 L 617.0625,296.09375 L 615.03125,293.90625 z"/><path style="font-size:12px;fill-rule:evenodd;stroke-width:.625;stroke-linejoin:round" id="path3634" d="M 566.57178,358.98387 L 531.11364,373.76562 L 548.54827,339.53387 C 549.64378,349.19066 556.94754,357.02366 566.57178,358.98387 z"/></g><g id="g3652"><path style="fill:#000;fill-opacity:1;fill-rule:evenodd;stroke:none;stroke-width:3.00000048;stroke-linecap:butt;stroke-linejoin:miter;stroke-miterlimit:4;stroke-dasharray:none;stroke-opacity:1" id="path3542" d="M 702.03125,293.90625 L 699.96875,296.09375 L 782.03125,372.125 L 784.0625,369.90625 L 702.03125,293.90625 z"/><path style="font-size:12px;fill-rule:evenodd;stroke-width:.625;stroke-linejoin:round" id="path3658" d="M 768.55919,339.45634 L 785.99381,373.6881 L 750.53568,358.90635 C 760.08124,357.07987 767.33631,349.20175 768.55919,339.45634 z"/></g><g id="g3612"><path style="fill:#000;fill-opacity:1;fill-rule:evenodd;stroke:none;stroke-width:2.99999976;stroke-linecap:butt;stroke-linejoin:miter;stroke-miterlimit:4;stroke-dasharray:none;stroke-opacity:1" id="path3550" d="M 287.46875,146.5625 L 56.5,238.59375 L 57.625,241.40625 L 288.59375,149.375 L 287.46875,146.5625 z"/><path style="font-size:12px;fill-rule:evenodd;stroke-width:.625;stroke-linejoin:round" id="path3618" d="M 91.778492,240.49428 L 53.376405,241.52304 L 81.96349,215.86067 C 79.509843,225.26457 83.504804,235.20142 91.778492,240.49428 z"/></g><g id="g3620"><path style="fill:#000;fill-opacity:1;fill-rule:evenodd;stroke:none;stroke-width:3.00000024;stroke-linecap:butt;stroke-linejoin:miter;stroke-miterlimit:4;stroke-dasharray:none;stroke-opacity:1" id="path3552" d="M 382.53125,147.59375 L 381.4375,150.375 L 609.25,241.40625 L 610.34375,238.59375 L 382.53125,147.59375 z"/><path style="font-size:12px;fill-rule:evenodd;stroke-width:.625;stroke-linejoin:round" id="path3626" d="M 584.94928,215.73984 L 613.51232,241.42897 L 575.11121,240.36425 C 583.36444,235.2322 587.30707,225.27447 584.94928,215.73984 z"/></g><g id="g2299" transform="translate(330.5,7.89927)"><path style="fill:#000;fill-opacity:1;fill-rule:evenodd;stroke:none;stroke-width:3.00000143;stroke-linecap:butt;stroke-linejoin:miter;stroke-miterlimit:4;stroke-dasharray:none;stroke-opacity:1" id="path2301" d="M -122.79648,444.31583 L -125.17148,446.12833 L -77.171479,508.12833 L -74.796479,506.28458 L -122.79648,444.31583 z"/><path style="font-size:12px;fill-rule:evenodd;stroke-width:.625;stroke-linejoin:round" id="path2303" d="M -85.103225,473.69634 L -73.515232,510.32281 L -106.07099,489.92911 C -96.355146,489.69192 -87.90691,483.10951 -85.103225,473.69634 z"/></g><g id="g2306" transform="translate(329.89202,6.1790932)"><path style="fill:#000;fill-opacity:1;fill-rule:evenodd;stroke:none;stroke-width:3.00000143;stroke-linecap:butt;stroke-linejoin:miter;stroke-miterlimit:4;stroke-dasharray:none;stroke-opacity:1" id="path2308" d="M -182.6875,447.09375 L -230.6875,509.0625 L -228.3125,510.90625 L -180.34375,448.90625 L -182.6875,447.09375 z"/><path style="font-size:12px;fill-rule:evenodd;stroke-width:.625;stroke-linejoin:round" id="path2310" d="M -199.34134,492.77173 L -231.8971,513.16543 L -220.3091,476.53896 C -217.64558,485.88559 -209.15671,492.41551 -199.34134,492.77173 z"/></g><g id="g2312" transform="matrix(1.0668565,0,0,1.0594562,72.472652,-183.16382)"><path style="fill:#000;fill-opacity:1;fill-rule:evenodd;stroke:none;stroke-width:3.00000143;stroke-linecap:butt;stroke-linejoin:miter;stroke-miterlimit:4;stroke-dasharray:none;stroke-opacity:1" id="path2314" d="M 668.8125,594.09375 L 620.8125,656.0625 L 623.1875,657.90625 L 671.15625,595.90625 L 668.8125,594.09375 z"/><path style="font-size:12px;fill-rule:evenodd;stroke-width:.625;stroke-linejoin:round" id="path2316" d="M 652.15864,639.77173 L 619.60288,660.16543 L 631.19088,623.53896 C 633.8544,632.88559 642.34327,639.41551 652.15864,639.77173 z"/></g></g></svg>